<?xml version="1.0" encoding="utf-8"?>
<!-- Generator: Adobe Illustrator 21.1.0, SVG Export Plug-In . SVG Version: 6.00 Build 0)  -->
<svg version="1.1" id="Layer_1" xmlns="http://www.w3.org/2000/svg" xmlns:xlink="http://www.w3.org/1999/xlink" x="0px" y="0px"
	 viewBox="0 0 32 32" style="enable-background:new 0 0 32 32;" xml:space="preserve">
<style type="text/css">
	.st0{fill:url(#SVGID_1_);enable-background:new    ;}
	.st1{fill:url(#SVGID_2_);enable-background:new    ;}
	.st2{fill:url(#SVGID_3_);enable-background:new    ;}
	.st3{fill:url(#SVGID_4_);enable-background:new    ;}
	.st4{fill:url(#SVGID_5_);enable-background:new    ;}
	.st5{fill:url(#SVGID_6_);enable-background:new    ;}
	.st6{fill:url(#SVGID_7_);enable-background:new    ;}
	.st7{fill:url(#SVGID_8_);enable-background:new    ;}
	.st8{fill:url(#SVGID_9_);enable-background:new    ;}
	.st9{fill:url(#SVGID_10_);enable-background:new    ;}
	.st10{fill:url(#SVGID_11_);enable-background:new    ;}
	.st11{fill:url(#SVGID_12_);enable-background:new    ;}
	.st12{fill:url(#SVGID_13_);enable-background:new    ;}
	.st13{fill:url(#SVGID_14_);enable-background:new    ;}
	.st14{opacity:0.9;fill:#8D717A;enable-background:new    ;}
	.st15{opacity:0.9;fill:#7C5C66;enable-background:new    ;}
	.st16{opacity:0.9;fill:#947A83;enable-background:new    ;}
	.st17{opacity:0.9;fill:#AD999F;enable-background:new    ;}
	.st18{opacity:0.9;fill:#9D858C;enable-background:new    ;}
	.st19{opacity:0.9;fill:#73515C;enable-background:new    ;}
</style>
<linearGradient id="SVGID_1_" gradientUnits="userSpaceOnUse" x1="-58.1271" y1="14.3035" x2="-30.1971" y2="-10.3413">
	<stop  offset="0" style="stop-color:#E6D2CA"/>
	<stop  offset="1" style="stop-color:#F9CDCD"/>
</linearGradient>
<polygon class="st0" points="-53.3,0 -53.3,20 -43.3,10 "/>
<linearGradient id="SVGID_2_" gradientUnits="userSpaceOnUse" x1="-60.2828" y1="33.8945" x2="-31.49" y2="3.4512">
	<stop  offset="0" style="stop-color:#C0748C"/>
	<stop  offset="6.146568e-02" style="stop-color:#C67D93"/>
	<stop  offset="0.3292" style="stop-color:#DCA0AC"/>
	<stop  offset="0.5823" style="stop-color:#ECB9BE"/>
	<stop  offset="0.8128" style="stop-color:#F6C8C9"/>
	<stop  offset="1" style="stop-color:#F9CDCD"/>
</linearGradient>
<polygon class="st1" points="-43.3,10 -53.3,20 -53.3,24 -45.3,24 -37.3,16 "/>
<linearGradient id="SVGID_3_" gradientUnits="userSpaceOnUse" x1="-64.3783" y1="39.2434" x2="-42.681" y2="17.381">
	<stop  offset="0" style="stop-color:#E6D2CA"/>
	<stop  offset="1" style="stop-color:#F9CDCD"/>
</linearGradient>
<polygon class="st2" points="-53.3,24 -53.3,32 -45.3,24 "/>
<linearGradient id="SVGID_4_" gradientUnits="userSpaceOnUse" x1="-52.8056" y1="34.3421" x2="-12.5691" y2="21.2929">
	<stop  offset="0" style="stop-color:#F2E9E4"/>
	<stop  offset="1" style="stop-color:#F9CDCD"/>
</linearGradient>
<polygon class="st3" points="-45.3,24 -53.3,32 -21.3,32 -29.3,24 "/>
<linearGradient id="SVGID_5_" gradientUnits="userSpaceOnUse" x1="-25.8782" y1="12.8471" x2="-43.2221" y2="29.6759">
	<stop  offset="0" style="stop-color:#E6D2CA"/>
	<stop  offset="1" style="stop-color:#F9CDCD"/>
</linearGradient>
<polygon class="st4" points="-45.3,24 -37.3,16 -29.3,24 "/>
<linearGradient id="SVGID_6_" gradientUnits="userSpaceOnUse" x1="-9.4974" y1="0.6576" x2="-37.3045" y2="27.4941">
	<stop  offset="0" style="stop-color:#C0748C"/>
	<stop  offset="1" style="stop-color:#F9CDCD"/>
</linearGradient>
<polygon class="st5" points="-37.3,16 -21.3,0 -21.3,24 -29.3,24 "/>
<linearGradient id="SVGID_7_" gradientUnits="userSpaceOnUse" x1="-17.0161" y1="20.741" x2="-28.5307" y2="30.8923">
	<stop  offset="0" style="stop-color:#E6D2CA"/>
	<stop  offset="1" style="stop-color:#F9CDCD"/>
</linearGradient>
<polygon class="st6" points="-29.3,24 -21.3,24 -21.3,32 "/>
<linearGradient id="SVGID_8_" gradientUnits="userSpaceOnUse" x1="-11.186" y1="19.8703" x2="16.744" y2="-4.7745">
	<stop  offset="0" style="stop-color:#E6D2CA"/>
	<stop  offset="0.2475" style="stop-color:#E1CEC9"/>
	<stop  offset="0.5461" style="stop-color:#D2C2C8"/>
	<stop  offset="0.8697" style="stop-color:#BAAFC5"/>
	<stop  offset="1" style="stop-color:#AEA5C4"/>
</linearGradient>
<polygon class="st7" points="0,0 0,20 10,10 "/>
<linearGradient id="SVGID_9_" gradientUnits="userSpaceOnUse" x1="-8.6478" y1="35.6021" x2="20.1451" y2="5.1588">
	<stop  offset="0" style="stop-color:#F9CDCD"/>
	<stop  offset="1.764888e-02" style="stop-color:#F7CCCD"/>
	<stop  offset="0.678" style="stop-color:#C3B0C6"/>
	<stop  offset="1" style="stop-color:#AEA5C4"/>
</linearGradient>
<polygon class="st8" points="10,10 0,20 0,24 8,24 16,16 "/>
<linearGradient id="SVGID_10_" gradientUnits="userSpaceOnUse" x1="-2.25" y1="28" x2="26.01" y2="28">
	<stop  offset="0" style="stop-color:#FBE1E1"/>
	<stop  offset="1" style="stop-color:#9387B1"/>
</linearGradient>
<polygon class="st9" points="0,24 0,32 8,24 "/>
<linearGradient id="SVGID_11_" gradientUnits="userSpaceOnUse" x1="-2.7582" y1="33.5918" x2="38.3709" y2="23.4861">
	<stop  offset="0" style="stop-color:#FBE1E1"/>
	<stop  offset="1" style="stop-color:#E4E1EC"/>
</linearGradient>
<polygon class="st10" points="8,24 0,32 32,32 24,24 "/>
<linearGradient id="SVGID_12_" gradientUnits="userSpaceOnUse" x1="23.6616" y1="19.6721" x2="-5.2067" y2="22.2571">
	<stop  offset="0" style="stop-color:#C9C3D8"/>
	<stop  offset="1" style="stop-color:#F9CDCD"/>
</linearGradient>
<polygon class="st11" points="8,24 16,16 24,24 "/>
<linearGradient id="SVGID_13_" gradientUnits="userSpaceOnUse" x1="39.6948" y1="4.5738" x2="7.8992" y2="35.2596">
	<stop  offset="0" style="stop-color:#78689D"/>
	<stop  offset="1" style="stop-color:#F9CDCD"/>
</linearGradient>
<polygon class="st12" points="16,16 32,0 32,24 24,24 "/>
<linearGradient id="SVGID_14_" gradientUnits="userSpaceOnUse" x1="20.2342" y1="27.9993" x2="45.2549" y2="28.0008">
	<stop  offset="0" style="stop-color:#F9CDCD"/>
	<stop  offset="1" style="stop-color:#9387B1"/>
</linearGradient>
<polygon class="st13" points="24,24 32,24 32,32 "/>
<polygon class="st14" points="1.3,47.5 1.3,67.5 11.3,57.5 "/>
<polygon class="st15" points="11.3,57.5 1.3,67.5 1.3,71.5 9.3,71.5 17.3,63.5 "/>
<polygon class="st16" points="1.3,71.5 1.3,79.5 9.3,71.5 "/>
<polygon class="st17" points="9.3,71.5 1.3,79.5 33.3,79.5 25.3,71.5 "/>
<polygon class="st18" points="9.3,71.5 17.3,63.5 25.3,71.5 "/>
<polygon class="st19" points="17.3,63.5 33.3,47.5 33.3,71.5 25.3,71.5 "/>
<polygon class="st18" points="25.3,71.5 33.3,71.5 33.3,79.5 "/>
</svg>
