<svg xmlns="http://www.w3.org/2000/svg" xmlns:xlink="http://www.w3.org/1999/xlink" width="32" height="32" viewBox="0 0 32 32"><defs><style>.a{fill:url(#a);}.b{fill:url(#b);}.c{fill:url(#c);}.d{fill:url(#d);}.e{fill:url(#e);}.f{fill:url(#f);}.g{fill:url(#g);}</style><linearGradient id="a" x1="-11.19" y1="14.13" x2="16.74" y2="38.77" gradientTransform="matrix(1, 0, 0, -1, 0, 34)" gradientUnits="userSpaceOnUse"><stop offset="0" stop-color="#e6d2ca"/><stop offset="0.25" stop-color="#e1cec9"/><stop offset="0.55" stop-color="#d2c2c8"/><stop offset="0.87" stop-color="#baafc5"/><stop offset="1" stop-color="#aea5c4"/></linearGradient><linearGradient id="b" x1="-8.65" y1="-1.6" x2="20.15" y2="28.84" gradientTransform="matrix(1, 0, 0, -1, 0, 34)" gradientUnits="userSpaceOnUse"><stop offset="0" stop-color="#f9cdcd"/><stop offset="0.02" stop-color="#f7cccd"/><stop offset="0.68" stop-color="#c3b0c6"/><stop offset="1" stop-color="#aea5c4"/></linearGradient><linearGradient id="c" x1="-2.25" y1="6" x2="26.01" y2="6" gradientTransform="matrix(1, 0, 0, -1, 0, 34)" gradientUnits="userSpaceOnUse"><stop offset="0" stop-color="#fbe1e1"/><stop offset="1" stop-color="#9387b1"/></linearGradient><linearGradient id="d" x1="-2.76" y1="0.41" x2="38.37" y2="10.51" gradientTransform="matrix(1, 0, 0, -1, 0, 34)" gradientUnits="userSpaceOnUse"><stop offset="0" stop-color="#fbe1e1"/><stop offset="1" stop-color="#e4e1ec"/></linearGradient><linearGradient id="e" x1="23.66" y1="14.33" x2="-5.21" y2="11.74" gradientTransform="matrix(1, 0, 0, -1, 0, 34)" gradientUnits="userSpaceOnUse"><stop offset="0" stop-color="#c9c3d8"/><stop offset="1" stop-color="#f9cdcd"/></linearGradient><linearGradient id="f" x1="39.69" y1="29.43" x2="7.9" y2="-1.26" gradientTransform="matrix(1, 0, 0, -1, 0, 34)" gradientUnits="userSpaceOnUse"><stop offset="0" stop-color="#78689d"/><stop offset="1" stop-color="#f9cdcd"/></linearGradient><linearGradient id="g" x1="20.23" y1="6" x2="45.25" y2="6" gradientTransform="matrix(1, 0, 0, -1, 0, 34)" gradientUnits="userSpaceOnUse"><stop offset="0" stop-color="#f9cdcd"/><stop offset="1" stop-color="#9387b1"/></linearGradient></defs><title>favicon</title><polygon class="a" points="0 0 0 20 10 10 0 0"/><polygon class="b" points="10 10 0 20 0 24 8 24 16 16 10 10"/><polygon class="c" points="0 24 0 32 8 24 0 24"/><polygon class="d" points="8 24 0 32 32 32 24 24 8 24"/><polygon class="e" points="8 24 16 16 24 24 8 24"/><polygon class="f" points="16 16 32 0 32 24 24 24 16 16"/><polygon class="g" points="24 24 32 24 32 32 24 24"/></svg>