<svg xmlns="http://www.w3.org/2000/svg" width="240" height="240" viewBox="0 0 240 240"><defs><style>.a{fill:#f7aac8;}.b{fill:#fff7ee;}.c{fill:#b5cee3;}.d{fill:#f1d6cf;}.e{fill:#e6b8ac;}.f{fill:#51424c;}.g{fill:#e89eb7;}.h{fill:#689dc1;}.i{fill:#eab7cb;}</style></defs><title>avatar</title><circle class="a" cx="120" cy="120" r="120"/><path class="b" d="M105.25,196.36,99.9,154.17,64,152.07l-7.5,27.77-4.87,38.93a119.42,119.42,0,0,0,37.84,17.46c3.87.9,8.06,1.74,12.52,2.42,3.56.55,7,1,10.22,1.24l.79.05h.79Z"/><path class="c" d="M157.47,166.11l-60.38,8.23s3.36,36.14,10.74,50.23A72.51,72.51,0,0,1,114,239.85q3,.15,6,.15a120.33,120.33,0,0,0,28.23-3.35,69.31,69.31,0,0,0,4.85-11.19c.94-2.84,5-26.17,5.15-28.54,0-.39.16-2.19.25-4.56A182.84,182.84,0,0,0,157.47,166.11Z"/><path class="b" d="M148.23,236.65a119.88,119.88,0,0,0,55.7-30.88c-3.28-9.79-5.49-17.81-6.87-23.13-4.35-16.81-4.74-23.65-10.74-30.3a32.62,32.62,0,0,0-14.93-9.11l-19.8-.61a106.57,106.57,0,0,1,6.32,28.51c.32,4,0,11.58-1,26.61-1,16.1-1.88,22.24-4.46,29.36A70.18,70.18,0,0,1,148.23,236.65Z"/><path class="d" d="M115,124.52,98.77,151.86S96.42,172,97.09,174.34s20,14.76,22.91,18.79a80.63,80.63,0,0,0,8.84,9.39s2-1.17,4.42-2.94a61.06,61.06,0,0,0,7.44-6.45c7-7,16.83-19.27,17.33-19.89a78.75,78.75,0,0,0-2.34-17.78c-.81-3.15-3.41-12.56-2.55-9.42h0l-10.37-13.68"/><path class="e" d="M142.52,135.27l.22-4.35v-.51L115,122.68l-.12,2.36s5.49,6.7,8.68,9.31,10.23,4.1,14.25,3.93S142.52,135.27,142.52,135.27Z"/><path class="e" d="M147.33,153c.53.37,3.65,2.43,3.61,2.5s-.09,0-.09,0l5,.7-.2-.79c-.61-2.39-2.25-8.35-2.64-9.75h0l.1.35-1.85-2.44c-2.14-1.18-6.9-3.52-8.48-2C141,143.4,143.32,150.26,147.33,153Z"/><path class="f" d="M94.86,49.21A124.8,124.8,0,0,0,84.63,75.94C80.28,93,81.47,96.37,75.75,114.3c-3.06,9.59-5.1,17.62-9.15,24-6,9.51-9.77,12.34-12,21.86a38.31,38.31,0,0,0-.6,13.16,35.64,35.64,0,0,0,2.42,8.77c.43-4.25,2-13.62,9.09-21.16,2.28-2.42,5.74-4.15,10.41-4.79a36,36,0,0,1,6.75.15c3.11.41,6.45,1,7.65,1.2,3.75.45,5-.2,11.55-2.85,5.7-2.29,8.34-6,8.85-7,1-1.89,2.84-3.13,3.41-7.78a123.72,123.72,0,0,0,.92-16.4A64.6,64.6,0,0,1,102.19,77.7a73.66,73.66,0,0,1,39.86-8.85,32.43,32.43,0,0,0,4.8-7.1,38.8,38.8,0,0,0,3-8.72c1.06-4.38,1.24-7.34,1.4-7.32s-.15,5-.45,11.13c-.23,4.75-.35,8.64-.41,11.25,4.69-.24,4.06.35,9.54,1.37.74.14,4.35,1.5,8,2.55a12.14,12.14,0,0,0,1.65-3.9,21.84,21.84,0,0,0-.15-7.8A17.89,17.89,0,0,0,167.2,54a43.2,43.2,0,0,1,1.51,18.45c-2.75,21.81-2,20.85-3.19,25.89-1.86,7.76-3.87,16.11-10.73,23.75a40.47,40.47,0,0,1-12,9.09l-.56,11a28.28,28.28,0,0,0,6.44,2.5c3.7.93,6.44.8,10.34.69a56.48,56.48,0,0,1,17.12,1.75c5.16,1.42,8,2.9,10.22,5.18a83.12,83.12,0,0,0-.27-11.47c-.95-10.17-3.46-16.72-4.91-21.52-5.71-18.94,1.21-23.92-4.3-51.52a88.43,88.43,0,0,0-4.35-15c-3.45-8.88-7.56-19-16.36-21.85a16.58,16.58,0,0,0-6.75-.65,12.83,12.83,0,0,0-2.56-3.71c-7.54-7.53-23.38-3.38-31.46.51C102.58,33.3,96.81,44.75,94.86,49.21Z"/><path class="d" d="M142.77,131.17a40.76,40.76,0,0,0,10.8-7.79c.54-.65,1.2-1.35,1.91-2.1,6.31-7.42,8.25-15.46,10.05-22.95,1.2-5,.44-4.08,3.19-25.89a44.37,44.37,0,0,0,.38-5.07L169,67c-.08.26-.15.51-.25.77-.29.77-.63,3.85-.86,4.26-.71-.16,0,0-4.35-1.8-5.25-1.65-8.46-2.37-13.14-2.12.06-2.6.18-6.49.41-11.25.3-6.17.65-11.1.45-11.13s-.34,3-1.4,7.32a38.8,38.8,0,0,1-3,8.72,32.43,32.43,0,0,1-4.81,7.1A73.66,73.66,0,0,0,102.2,77.7a65.08,65.08,0,0,0,3,27.17c2.93,11.68,6.72,14.48,9.82,18.55.88,1.09,3.82,3.19,11.85,7.42a22.78,22.78,0,0,0,12.25,1.35,23.82,23.82,0,0,0,3.63-.94Z"/><path class="f" d="M112.3,72.74a19.6,19.6,0,0,1,6.4-2.88,8.33,8.33,0,0,1,3.44-.07c4.4.95,5.66,3.64,5.66,3.64a61.75,61.75,0,0,0-8.55-1.13A55.63,55.63,0,0,0,112.3,72.74Z"/><path class="f" d="M148.9,71.82a6.93,6.93,0,0,1,5.31-3.22c6.14-.84,8.38,3.1,8.38,3.1a23.46,23.46,0,0,0-7.86-1A21.37,21.37,0,0,0,148.9,71.82Z"/><path class="f" d="M116,83.18s3.26-5,7.91-3.68,4.84,3.75,4.84,3.75-4.31-1.33-7.61-.55-4.3,1.73-4.76,1.7S116,83.18,116,83.18Z"/><ellipse class="f" cx="122.33" cy="83.63" rx="3.07" ry="2.47"/><path class="b" d="M121.2,83.47a.83.83,0,0,1-1.65,0c0-.45.45-.52.9-.52S121.2,83,121.2,83.47Z"/><path class="f" d="M159.34,81.15s-3.52-4.66-7.58-2.88-3.93,4.15-3.93,4.15,3.74-1.71,6.81-1.25,4.08,1.3,4.5,1.23S159.34,81.15,159.34,81.15Z"/><ellipse class="f" cx="152.63" cy="83.02" rx="3.08" ry="2.47"/><circle class="b" cx="150.38" cy="82.57" r="0.82"/><path class="e" d="M145.36,96.91,147,99.54a.6.6,0,0,1,0,.56l-1.46,3.43a.8.8,0,0,1-.75.42h-.71c-.36,0-.64-.23-.61-.51l.32-2.89a2.93,2.93,0,0,0,0-.3V97.17C143.85,96.53,145,96.34,145.36,96.91Z"/><path class="g" d="M125.4,112.47c.55.58,1.75,1.47,2.55,2.28a16.92,16.92,0,0,0,3.45,2.4c1.57.89,5,.86,7,.75,5.55-.3,6.9-1.65,9.15-3.75a19.16,19.16,0,0,0,2-2.1"/><path class="f" d="M121.58,100c-6.74,0-12.23-5.14-12.23-11.45s5.48-11.45,12.23-11.45,12.22,5.18,12.22,11.5S128.32,100,121.58,100Zm0-22.15c-6.33,0-11.48,4.8-11.48,10.7s5.15,10.7,11.48,10.7,11.48-4.8,11.48-10.7S127.9,77.9,121.58,77.9Z"/><path class="f" d="M155.7,99a11.69,11.69,0,0,1-11.55-11.8c0-6.23,4.86-10.76,11.55-10.76S167.25,81,167.25,87.2A11.69,11.69,0,0,1,155.7,99Zm0-21.81c-6.26,0-10.8,4.21-10.8,10a10.8,10.8,0,1,0,21.6,0c0-5.81-4.5-10-10.8-10Z"/><path class="f" d="M133.53,89.1l-.39-.64a18,18,0,0,1,7-2.45c3.49-.19,4.57,1.29,4.62,1.36l-.62.43s-.93-1.21-3.93-1A17.18,17.18,0,0,0,133.53,89.1Z"/><path class="h" d="M157.62,186.45s-4.17,33-9.72,42.6c-4.54,7.86-9.82,9.59-9.82,9.59l10.12-1.94s4.65-5.08,7.35-22.41S157.62,186.45,157.62,186.45Z"/><path class="i" d="M125.4,112.47c.23,1,8.67-2.57,11.1-2.52,1.35,0,3.17.88,5.4.15,3.13-1,7.65,1.95,7.65,1.95s.43-.19-4.52.84S125.4,112.47,125.4,112.47Z"/></svg>