<svg id="图层_1" data-name="图层 1" xmlns="http://www.w3.org/2000/svg" width="32" height="32" viewBox="0 0 32 32"><defs><style>.cls-1{fill:#37bf4c;}.cls-2{fill:#fff;}</style></defs><title>douban-active</title><path class="cls-1" d="M25.41,32H6.59A6.58,6.58,0,0,1,0,25.41V6.59A6.58,6.58,0,0,1,6.59,0H25.41A6.58,6.58,0,0,1,32,6.59V25.41A6.58,6.58,0,0,1,25.41,32Z"/><path class="cls-2" d="M5.41,5h21.2V7.39H5.41ZM24.75,19.25V9.9H7.25v9.33l17.5,0Zm-15-6.95H22.24v4.58H9.79ZM21,24.61a28.76,28.76,0,0,0,2.14-4.05l-2.54-.93a32.37,32.37,0,0,1-2.31,5H13.82a23.21,23.21,0,0,0-2.49-5L9,20.56a40.5,40.5,0,0,1,2.35,4.05H4.8V27H27.2V24.61Z"/></svg>