<?xml version="1.0" encoding="utf-8"?>
<!-- Generator: Adobe Illustrator 22.0.1, SVG Export Plug-In . SVG Version: 6.00 Build 0)  -->
<svg version="1.1" baseProfile="tiny" id="图层_1"
	 xmlns="http://www.w3.org/2000/svg" xmlns:xlink="http://www.w3.org/1999/xlink" x="0px" y="0px" viewBox="0 0 32 32"
	 xml:space="preserve">
<title>douban-active</title>
<path fill="#E84C88" d="M25.4,32H6.6C3,32,0,29.1,0,25.4c0,0,0,0,0,0V6.6C0,3,2.9,0,6.6,0c0,0,0,0,0,0h18.8C29,0,32,2.9,32,6.6
	c0,0,0,0,0,0v18.8C32,29,29.1,32,25.4,32C25.4,32,25.4,32,25.4,32z"/>
<path id="SVGID_3_" fill="#FFFFFF" d="M16,28C9.4,28,4,22.6,4,16S9.4,4,16,4s12,5.4,12,12S22.6,28,16,28z M26.1,17.6
	c-0.4-0.1-3.2-1-6.4-0.4c1.3,3.7,1.9,6.7,2,7.3C24,22.9,25.6,20.5,26.1,17.6z M20,25.4c-0.2-0.9-0.8-4.1-2.2-7.8h-0.1
	c-5.7,2-7.8,6-8,6.4c1.8,1.3,3.9,2.2,6.3,2.2C17.4,26.2,18.8,26,20,25.4L20,25.4z M8.4,22.9c0.2-0.4,3-5,8.3-6.8
	c0.2-0.1,0.3-0.1,0.4-0.1c-0.3-0.6-0.5-1.2-0.9-1.8c-5.1,1.5-10.1,1.5-10.6,1.4V16C5.8,18.7,6.7,21,8.4,22.9L8.4,22.9z M6,13.9
	c0.5,0,4.7,0,9.5-1.2c-1.7-3-3.5-5.5-3.8-5.9C8.8,8.1,6.6,10.7,6,13.9z M13.6,6.1c0.3,0.4,2.1,2.9,3.8,6c3.6-1.4,5.2-3.4,5.4-3.7
	c-1.8-1.6-4.2-2.6-6.8-2.6C15.1,5.8,14.4,5.9,13.6,6.1L13.6,6.1z M23.9,9.5c-0.2,0.3-1.9,2.5-5.7,4.1c0.2,0.5,0.5,1,0.7,1.5
	c0.1,0.2,0.2,0.4,0.2,0.5c3.4-0.4,6.8,0.3,7.1,0.3C26.2,13.5,25.4,11.3,23.9,9.5z"/>
</svg>
