<svg xmlns="http://www.w3.org/2000/svg" width="32" height="32" viewBox="0 0 32 32"><defs><style>.a{fill:#e84c88;}.b{fill:#fff;}</style></defs><title>dribbble-active</title><path class="a" d="M25.41,32H6.59A6.59,6.59,0,0,1,0,25.43V6.59A6.59,6.59,0,0,1,6.57,0H25.41A6.59,6.59,0,0,1,32,6.57V25.41A6.59,6.59,0,0,1,25.43,32Z" transform="translate(0 0)"/><path class="b" d="M16,28A12,12,0,1,1,28,16,12,12,0,0,1,16,28ZM26.13,17.64a15.33,15.33,0,0,0-6.39-.43,44.36,44.36,0,0,1,2,7.31A10.45,10.45,0,0,0,26.13,17.64ZM20,25.44a42.4,42.4,0,0,0-2.2-7.8h-.06A14.44,14.44,0,0,0,9.7,24a10.4,10.4,0,0,0,6.3,2.2,9.92,9.92,0,0,0,4-.79ZM8.39,22.89a16.27,16.27,0,0,1,8.33-6.76,1.12,1.12,0,0,1,.43-.1c-.26-.59-.53-1.18-.85-1.77A35.91,35.91,0,0,1,5.74,15.7V16a10.27,10.27,0,0,0,2.65,6.86ZM6,13.93a40.88,40.88,0,0,0,9.47-1.21,62.21,62.21,0,0,0-3.77-5.9A9.91,9.91,0,0,0,6,13.93ZM13.61,6.1a62.57,62.57,0,0,1,3.83,6,12.09,12.09,0,0,0,5.38-3.68,10.18,10.18,0,0,0-6.75-2.55,6.5,6.5,0,0,0-2.46.26ZM23.93,9.54a14.07,14.07,0,0,1-5.7,4.07c.23.49.49,1,.69,1.47.06.17.16.36.23.53a24.58,24.58,0,0,1,7.15.32A10.47,10.47,0,0,0,23.93,9.54Z" transform="translate(0 0)"/></svg>