<svg xmlns="http://www.w3.org/2000/svg" width="80" height="80" viewBox="0 0 80 80"><title>email-logo</title><circle cx="40" cy="40" r="40" style="fill:#b28cea;opacity:0.8999999761581421;isolation:isolate"/><path d="M58.46,56H21.53a3.93,3.93,0,0,1-3.93-3.93h0V25.93A1.93,1.93,0,0,1,19.53,24H59.9a.9.9,0,0,1,.53.16,1.92,1.92,0,0,1,.14,3L40.8,43.11a1,1,0,0,1-1.29,0L27.68,33.88a1.27,1.27,0,0,1-.26-1.67,1,1,0,0,1,1.44-.34l.09.06L40.1,40.66,57.88,26.4H21.34A1.34,1.34,0,0,0,20,27.74h0V51.86a1.74,1.74,0,0,0,1.74,1.74H58.27A1.73,1.73,0,0,0,60,51.87h0V32.1a1.2,1.2,0,1,1,2.4,0v20A4,4,0,0,1,58.46,56Zm.8-30.58Z" style="fill:#fff"/></svg>