<svg id="图层_1" data-name="图层 1" xmlns="http://www.w3.org/2000/svg" xmlns:xlink="http://www.w3.org/1999/xlink" width="32" height="32" viewBox="0 0 32 32"><defs><style>.cls-1{fill:url(#未命名的渐变_6);}.cls-2{fill:url(#未命名的渐变_6-2);}.cls-3{fill:url(#未命名的渐变_6-3);}</style><linearGradient id="未命名的渐变_6" x1="29.29" y1="1.91" x2="4.57" y2="28.12" gradientUnits="userSpaceOnUse"><stop offset="0" stop-color="#b708ab"/><stop offset="1" stop-color="#f48c03"/></linearGradient><linearGradient id="未命名的渐变_6-2" x1="29.27" y1="1.89" x2="4.56" y2="28.11" xlink:href="#未命名的渐变_6"/><linearGradient id="未命名的渐变_6-3" x1="29.56" y1="2.17" x2="4.85" y2="28.38" xlink:href="#未命名的渐变_6"/></defs><title>instagram-active</title><path class="cls-1" d="M22.82,32H9.18A9.18,9.18,0,0,1,0,22.83V9.17A9.18,9.18,0,0,1,9.18,0H22.82A9.18,9.18,0,0,1,32,9.17V22.83A9.18,9.18,0,0,1,22.82,32ZM9.18,2.55A6.62,6.62,0,0,0,2.51,9.13v13.7a6.63,6.63,0,0,0,6.63,6.63H22.82a6.62,6.62,0,0,0,6.67-6.58V9.17a6.63,6.63,0,0,0-6.63-6.63H9.18Z"/><path class="cls-2" d="M16,23.84A7.86,7.86,0,1,1,23.87,16,7.86,7.86,0,0,1,16,23.84Zm0-13.17A5.32,5.32,0,1,0,21.32,16,5.32,5.32,0,0,0,16,10.67Z"/><path class="cls-3" d="M22.89,7.37a1.77,1.77,0,0,0,3.53,0h0a1.77,1.77,0,0,0-3.53,0Z"/></svg>