<svg xmlns="http://www.w3.org/2000/svg" width="32" height="32" viewBox="0 0 32 32"><title>instagram-inactive</title><path d="M22.82,32H9.18A9.18,9.18,0,0,1,0,22.83V9.17A9.18,9.18,0,0,1,9.18,0H22.82A9.18,9.18,0,0,1,32,9.17V22.83A9.18,9.18,0,0,1,22.82,32ZM9.18,2.55A6.62,6.62,0,0,0,2.51,9.12h0v13.7a6.63,6.63,0,0,0,6.63,6.63H22.82a6.62,6.62,0,0,0,6.67-6.57h0V9.17a6.63,6.63,0,0,0-6.63-6.63H9.18Z" style="fill:#b394f6"/><path d="M16,23.84A7.86,7.86,0,1,1,23.87,16h0A7.86,7.86,0,0,1,16,23.84Zm0-13.17A5.32,5.32,0,1,0,21.32,16,5.32,5.32,0,0,0,16,10.67Z" style="fill:#b394f6"/><path d="M22.89,7.37a1.77,1.77,0,0,0,3.53,0h0a1.77,1.77,0,0,0-3.53,0Z" style="fill:#b394f6"/></svg>