<svg xmlns="http://www.w3.org/2000/svg" width="274" height="242" viewBox="0 0 274 242"><defs><style>.a{fill:#fff;}</style></defs><title>jumbotron-logo</title><path class="a" d="M84.73,72.95v1.23H98.16A11.51,11.51,0,0,1,96,77.69c-2.36,2.29-6.14,4-11.37,5.26l.71,1q8-2,11.44-5.41a12.75,12.75,0,0,0,2.72-4.45h.07q4.31,6.14,15.38,9.89l.58-1.2c-6.83-2.07-11.66-5-14.57-8.64h14V72.95H100a20.63,20.63,0,0,0,.5-4.17v-1.2h12v-1.2H87.17v1.19h12V68.8a16.93,16.93,0,0,1-.63,4.2ZM89.67,53.2v9.3H109.9V53.19Zm19,8.16H90.9V54.43h17.75Zm15.07,22.29c1.64,0,2.47-.79,2.47-2.22V69.76a48.39,48.39,0,0,0,4.5-2.18V66.31a49.64,49.64,0,0,1-4.46,2.28V59.5h4.32V58.3h-4.32V51.23H125V58.3h-4.87v1.2H125v9.64a47.59,47.59,0,0,1-5.23,1.78l.32,1.16c1.64-.5,3.28-1.12,4.91-1.78V81.14c0,.94-.58,1.45-1.67,1.45a29.06,29.06,0,0,1-2.94-.1l.26,1.19ZM134,66.79h3.6V81.25a1,1,0,0,1-.73.94l.36,1.12a57.81,57.81,0,0,0,8-2.61l-.33-1.08a55.9,55.9,0,0,1-6.1,2.1V66.79h4.39a21.66,21.66,0,0,0,8.5,16.78l.87-.83a21,21,0,0,1-6.43-8,16.39,16.39,0,0,0,5.74-4.56l-.83-.79a16.18,16.18,0,0,1-5.31,4.45,20.89,20.89,0,0,1-1.38-7.07h7.34V65.63H134V54.14h17.18v-1.2H132.85V64.65c-.15,7.86-1.64,14-4.47,18.33l.94.83q4.09-6.52,4.68-17Zm2.65-7.53V60.5h13V59.28Zm34.75,9.17a28,28,0,0,1-.61,3.22H158v1.27h12.4a13,13,0,0,1-2.94,5c-2.17,2.18-5.73,3.84-10.64,5l.51,1.16c5-1.27,8.72-3.08,11-5.4a15.42,15.42,0,0,0,3.34-5.76h13.26a39.29,39.29,0,0,1-.5,6.37c-.4,2-1.89,3-4.43,3-1.24,0-2.54,0-3.94-.1l.29,1.27h3.71q3.47,0,4.87-2.07c.93-1.37,1.3-4.71,1.3-9.79H172.07a26.43,26.43,0,0,0,.62-3.22h-1.28Zm-11-15.66v14h24.48v-14Zm23.24,12.72H173.27V60.37h10.35ZM173.28,59.2V54h10.35v5.26Zm-1.23,6.29H161.57V60.37H172ZM161.59,59.2V54H172v5.26Z"/><path class="a" d="M3,10.42a5.26,5.26,0,0,0,2.78-.59A3.93,3.93,0,0,0,7.28,8.1a5.49,5.49,0,0,0,.6-2.46,6.58,6.58,0,0,0-.36-2.28,4.42,4.42,0,0,0-1-1.65A4,4,0,0,0,4.9.72,9.59,9.59,0,0,0,2,.41H0v10Zm-2.08-9h.69a12.45,12.45,0,0,1,2.51.19,3.42,3.42,0,0,1,1.5.73,3.6,3.6,0,0,1,1,1.38,5.14,5.14,0,0,1,0,3.58,3.48,3.48,0,0,1-.87,1.3,2.79,2.79,0,0,1-1.33.71A11.54,11.54,0,0,1,2,9.48H.9V1.38Zm10.06,9h5.3v-1h-4.4V5.5h4.37v-1H11.88V1.38h4.41v-1H11Zm10.12.25a2.46,2.46,0,0,0,1.82-.79A2.59,2.59,0,0,0,23.68,8a2.8,2.8,0,0,0-.51-1.57,8.06,8.06,0,0,0-1.63-1.71,9.44,9.44,0,0,1-1.44-1.3,1.57,1.57,0,0,1-.31-1A1.23,1.23,0,0,1,21,1.16h.11a1.4,1.4,0,0,1,1,.42,4.66,4.66,0,0,1,.75.87l.79-.62A4.72,4.72,0,0,0,22.41.57,2.21,2.21,0,0,0,21.07.16a2.14,2.14,0,0,0-1.61.68,2.29,2.29,0,0,0-.64,1.65A2.74,2.74,0,0,0,19,3.4a2.64,2.64,0,0,0,.51.86,11.27,11.27,0,0,0,1.33,1.19,8.47,8.47,0,0,1,1.42,1.39A1.94,1.94,0,0,1,22.67,8a1.62,1.62,0,0,1-.51,1.22A1.68,1.68,0,0,1,21,9.71c-.74,0-1.38-.55-1.94-1.64l-.79.5a3.15,3.15,0,0,0,2.85,2.1Zm5.7-.25h.93V.41H26.8ZM36.6.16a4.84,4.84,0,0,0-3.75,1.57,5.49,5.49,0,0,0,0,7.38,4.89,4.89,0,0,0,3.82,1.57A4.42,4.42,0,0,0,40,9.34a5.25,5.25,0,0,0,1.32-3.71h-4v1h3a3.48,3.48,0,0,1-1.2,2.29,3.63,3.63,0,0,1-2.36.85,4.05,4.05,0,0,1-3.07-1.3,4.32,4.32,0,0,1-1.22-3.06A4.16,4.16,0,0,1,33,3.26a4.09,4.09,0,0,1,1.57-1.57,3.86,3.86,0,0,1,2-.57,4.48,4.48,0,0,1,1.84.45,5.74,5.74,0,0,1,1.7,1.25l.72-.74A5.73,5.73,0,0,0,36.6.16Zm8.13,10.26V2.84l6.14,7.57h.2V.41h-.92V8.08L44,.41h-.2v10Zm9.92,0H60v-1H55.58V5.5H60v-1H55.58V1.38H60v-1H54.65v10Zm8.28,0h.94V5.76h.54l3.31,4.66H68.9L65.54,5.76a3.31,3.31,0,0,0,2.36-.68,2.5,2.5,0,0,0,.83-2A2.82,2.82,0,0,0,68.5,1.9a2.19,2.19,0,0,0-.65-.9,2.28,2.28,0,0,0-.93-.48A9.17,9.17,0,0,0,64.8.41H62.93v10Zm2.58-9a2.88,2.88,0,0,1,1.72.41,1.78,1.78,0,0,1,.08,2.51l-.08.08a3,3,0,0,1-1.76.4H63.89V1.38ZM77.22.16,73.37,11.79h1L78.19.16Zm10.21,0A4.82,4.82,0,0,0,83.7,1.73a5.49,5.49,0,0,0,0,7.38,4.89,4.89,0,0,0,3.82,1.57,4.41,4.41,0,0,0,3.35-1.34,5.25,5.25,0,0,0,1.32-3.71h-4v1h3A3.49,3.49,0,0,1,90,8.88a3.63,3.63,0,0,1-2.36.85,4.05,4.05,0,0,1-3.06-1.3,4.37,4.37,0,0,1-1.23-3.06,4.24,4.24,0,0,1,.55-2.1A4.14,4.14,0,0,1,85.44,1.7a3.89,3.89,0,0,1,2-.57,4.48,4.48,0,0,1,1.83.45A5.78,5.78,0,0,1,91,2.82l.71-.74A5.73,5.73,0,0,0,87.44.16Zm7.2,10.26h.94V5.76h.54l3.34,4.66h1.18L97.25,5.76a3.29,3.29,0,0,0,2.36-.68,2.51,2.51,0,0,0,.84-2,2.82,2.82,0,0,0-.23-1.17A2.19,2.19,0,0,0,99.58,1a2.36,2.36,0,0,0-1-.48A9.2,9.2,0,0,0,96.47.41H94.65v10Zm2.58-9a2.9,2.9,0,0,1,1.72.41A1.79,1.79,0,0,1,99,4.31l-.08.08a2.92,2.92,0,0,1-1.76.4H95.61V1.38ZM107.33,0l-4.39,10.42h1L105.43,7h4l1.46,3.42h1L107.56,0ZM109,6h-3.15l1.57-3.76Zm5.61,4.44h1V5.76h.66a11.77,11.77,0,0,0,2.41-.17,2.21,2.21,0,0,0,1.3-.83,2.59,2.59,0,0,0,.52-1.68,2.67,2.67,0,0,0-.24-1.16A2.28,2.28,0,0,0,119.6,1a2.51,2.51,0,0,0-1-.49,9.86,9.86,0,0,0-2.1-.1h-1.86v10Zm2.57-9c1.51,0,2.27.56,2.27,1.69A1.79,1.79,0,0,1,119,4.31a2.43,2.43,0,0,1-1.85.49h-1.57V1.38Zm6.38,9h1V5.59h4.72v4.83h.94V.41h-.94V4.6h-4.72V.41h-1Zm10,0h.94V.41h-.94ZM144.91.7a5.19,5.19,0,0,0-2.4-.54,4.89,4.89,0,0,0-4.31,2.57,5.49,5.49,0,0,0-.65,2.63A5.33,5.33,0,0,0,139,9.16a4.73,4.73,0,0,0,3.63,1.51,5.27,5.27,0,0,0,2.36-.51,4.52,4.52,0,0,0,1.73-1.49l-.72-.6a4,4,0,0,1-3.28,1.65,3.94,3.94,0,0,1-2.94-1.23,4.22,4.22,0,0,1-1.21-3,4.29,4.29,0,0,1,1.2-3.14,3.81,3.81,0,0,1,2.86-1.26A4,4,0,0,1,146,2.82l.72-.6A4.58,4.58,0,0,0,144.91.65Zm12-.7-4.39,10.42h1L155,7h4l1.46,3.42h1L157.16,0Zm1.7,6h-3.15L157,2.22Zm5.66,4.44h.94V5.76h.55l3.34,4.66h1.16l-3.35-4.66a3.3,3.3,0,0,0,2.36-.68,2.54,2.54,0,0,0,.84-2,3,3,0,0,0-.24-1.17,2.19,2.19,0,0,0-.65-.86,2.36,2.36,0,0,0-1-.48,9.17,9.17,0,0,0-2.13-.15h-1.85Zm2.57-9a2.89,2.89,0,0,1,1.72.41,1.47,1.47,0,0,1,.56,1.3,1.51,1.51,0,0,1-.56,1.3,3,3,0,0,1-1.76.4h-1.57V1.38Zm7.7,0v9h.94v-9h2.08v-1h-5.11v1Zm5.51,9H181V.41h-.94Zm6.25.25a2.47,2.47,0,0,0,1.82-.79,2.61,2.61,0,0,0,.81-1.9,2.79,2.79,0,0,0-.5-1.57,8.1,8.1,0,0,0-1.64-1.71,9.44,9.44,0,0,1-1.44-1.3,1.57,1.57,0,0,1-.31-1,1.23,1.23,0,0,1,1.2-1.26h.11a1.36,1.36,0,0,1,1,.35,5,5,0,0,1,.79.87l.75-.63A4.64,4.64,0,0,0,187.66.57a2.18,2.18,0,0,0-1.33-.41,2.12,2.12,0,0,0-1.61.68,2.29,2.29,0,0,0-.64,1.65,2.74,2.74,0,0,0,.16.91,2.62,2.62,0,0,0,.5.86,11.93,11.93,0,0,0,1.33,1.19,7.91,7.91,0,0,1,1.42,1.39A1.91,1.91,0,0,1,187.92,8a1.62,1.62,0,0,1-.5,1.22,1.69,1.69,0,0,1-1.22.49c-.73,0-1.38-.55-1.93-1.64l-.79.5a3.16,3.16,0,0,0,2.86,2.12Zm7-9.29v9h1v-9h2.07V.4h-5.11v1ZM204.19.16l-3.87,11.63h1L205.16.16ZM215.43.7a5.18,5.18,0,0,0-2.36-.54,4.73,4.73,0,0,0-2.5.68,4.8,4.8,0,0,0-1.81,1.89,5.39,5.39,0,0,0-.65,2.63,5.33,5.33,0,0,0,1.41,3.8,4.73,4.73,0,0,0,3.63,1.51,5.27,5.27,0,0,0,2.32-.51,4.52,4.52,0,0,0,1.73-1.49l-.72-.6a4,4,0,0,1-3.28,1.65,3.94,3.94,0,0,1-3-1.23,4.53,4.53,0,0,1,0-6.14,3.81,3.81,0,0,1,2.86-1.26,4,4,0,0,1,3.33,1.73l.72-.6A4.58,4.58,0,0,0,215.4.65Zm5,9.72h.93V5.76h.54l3.34,4.66h1.16L223,5.76a3.3,3.3,0,0,0,2.36-.68,2.51,2.51,0,0,0,.84-2A2.82,2.82,0,0,0,226,1.9a2.26,2.26,0,0,0-.65-.86,2.36,2.36,0,0,0-.93-.48,9.2,9.2,0,0,0-2.13-.15H220.4Zm2.57-9a2.89,2.89,0,0,1,1.72.41,1.79,1.79,0,0,1,.07,2.51l-.08.08a2.92,2.92,0,0,1-1.76.4h-1.57V1.38Zm6.54,9h5.3v-1h-4.36V5.5h4.36v-1h-4.36V1.38h4.4v-1H229.5ZM241.3,0l-4.39,10.42h1L239.4,7h4l1.46,3.42h1L241.54,0ZM243,6h-3.15l1.57-3.76Zm6.78-4.6v9h.94v-9h2.08V.4h-5.11v1Zm5.91,6.69a4.8,4.8,0,0,0,1.78,1.9,4.64,4.64,0,0,0,2.46.69,4.56,4.56,0,0,0,2.46-.7,4.86,4.86,0,0,0,1.78-1.92,5.55,5.55,0,0,0,.65-2.65,5.53,5.53,0,0,0-.65-2.65,4.84,4.84,0,0,0-1.8-1.91,4.73,4.73,0,0,0-2.46-.69,4.61,4.61,0,0,0-2.46.69,5,5,0,0,0-1.77,1.93A5.66,5.66,0,0,0,255,5.45a5.37,5.37,0,0,0,.66,2.62Zm7,.4a3.78,3.78,0,0,1-5.33.22h0l-.23-.23a4.28,4.28,0,0,1-1.15-3,4.36,4.36,0,0,1,1.12-3.06,3.63,3.63,0,0,1,2.8-1.25,3.68,3.68,0,0,1,2.79,1.25,4.61,4.61,0,0,1,0,6.11ZM268,10.42h1V5.76h.54l3.34,4.66H274l-3.35-4.66A3.28,3.28,0,0,0,273,5.08a2.49,2.49,0,0,0,.84-2,2.82,2.82,0,0,0-.23-1.17A2.36,2.36,0,0,0,273,1a2.36,2.36,0,0,0-1-.48,9.17,9.17,0,0,0-2.13-.15H268V10.42Zm2.58-9a2.88,2.88,0,0,1,1.72.41,1.78,1.78,0,0,1,.08,2.51l-.09.08a2.92,2.92,0,0,1-1.76.4H269V1.38Z"/><path class="a" d="M87.74,119.77a5.09,5.09,0,0,0,5.4-5.42V99.65H91.81v14.69a4.38,4.38,0,0,1-1.1,3.14,3.88,3.88,0,0,1-3,1.19,3.62,3.62,0,0,1-2.84-1.19,4.46,4.46,0,0,1-1.06-3.14v-.74H82.5v.74a5.41,5.41,0,0,0,1.43,3.93A5,5,0,0,0,87.74,119.77Zm27.77-.36v-1.27H103.93v-8.35h10.58v-1.24H103.93V101h11.58v-1.3H102.6v19.78h12.91Zm9.22,0V101.55l12,17.88h1.83V99.65h-1.34v18.12l-12-18.12h-1.83v19.78Zm24.77,0V101.55l12,17.88h1.83V99.65H162v18.12L150,99.65h-1.83v19.78Zm23.1,0,2.54-6.33h9.15l2.54,6.33h1.54l-7.74-19.75h-1.68l-7.87,19.75Zm3-7.6,4.17-10.62,4.07,10.62Zm-56.93,44.83,4.94-17.85,4.94,17.85h1.76l5.21-19.75H134l-4.57,17.49-4.84-17.49h-2.07l-4.81,17.49-4.57-17.49h-1.5l5.21,19.75Zm31.91.5a7.09,7.09,0,0,0,5.08-2,6.41,6.41,0,0,0,2.1-4.82V136.89H156.4v13.43a5.31,5.31,0,0,1-1.7,4,5.87,5.87,0,0,1-4.14,1.63,6.14,6.14,0,0,1-4.31-1.63,5.17,5.17,0,0,1-1.8-4V136.89h-1.34v13.43a6.33,6.33,0,0,0,2.17,4.82,7.6,7.6,0,0,0,5.28,2Z"/><path class="a" d="M137,242,2.36,17.29H271.64ZM10.65,22,137,232.87,263.35,22Z"/></svg>