<?xml version="1.0" encoding="utf-8"?>
<!-- Generator: Adobe Illustrator 22.1.0, SVG Export Plug-In . SVG Version: 6.00 Build 0)  -->
<svg version="1.1" baseProfile="tiny" id="Layer_1" xmlns="http://www.w3.org/2000/svg" xmlns:xlink="http://www.w3.org/1999/xlink"
	 x="0px" y="0px" width="174px" height="174px" viewBox="0 0 174 174" xml:space="preserve">
<rect y="-259" display="none" fill="#FFFFFF" width="259" height="259"/>
<g transform="translate(14,14)">
	<g>
		<rect x="33.3" y="-4" fill="#B28CEA" width="4.7" height="4.7"/>
		<rect x="47.3" y="-4" fill="#B28CEA" width="4.7" height="4.7"/>
		<rect x="38" y="0.7" fill="#B28CEA" width="4.7" height="4.7"/>
		<polygon fill="#B28CEA" points="108,5.3 108,10 112.7,10 112.7,5.3 112.7,0.7 112.7,-4 108,-4 103.3,-4 103.3,0.7 108,0.7 		"/>
		<polygon fill="#B28CEA" points="47.3,5.3 42.7,5.3 42.7,10 47.3,10 52,10 56.7,10 56.7,5.3 52,5.3 		"/>
		<rect x="66" y="19.3" fill="#B28CEA" width="4.7" height="4.7"/>
		<polygon fill="#B28CEA" points="80,24 80,28.7 84.7,28.7 84.7,24 84.7,19.3 80,19.3 75.3,19.3 75.3,24 		"/>
		<rect x="70.7" y="24" fill="#B28CEA" width="4.7" height="4.7"/>
		<polygon fill="#B28CEA" points="61.3,33.3 66,33.3 66,28.7 66,24 61.3,24 61.3,28.7 		"/>
		<rect x="14.7" y="33.3" fill="#B28CEA" width="4.7" height="4.7"/>
		<polygon fill="#B28CEA" points="33.3,38 33.3,42.7 33.3,47.3 38,47.3 38,42.7 42.7,42.7 42.7,38 38,38 38,33.3 42.7,33.3 
			47.3,33.3 52,33.3 52,28.7 47.3,28.7 47.3,24 52,24 52,28.7 56.7,28.7 56.7,24 61.3,24 61.3,19.3 56.7,19.3 52,19.3 52,14.7 
			47.3,14.7 47.3,19.3 42.7,19.3 42.7,24 42.7,28.7 38,28.7 38,24 38,19.3 42.7,19.3 42.7,14.7 38,14.7 38,10 33.3,10 33.3,14.7 
			33.3,19.3 33.3,24 33.3,28.7 33.3,33.3 28.7,33.3 24,33.3 24,38 28.7,38 		"/>
		<polygon fill="#B28CEA" points="56.7,33.3 52,33.3 52,38 56.7,38 61.3,38 61.3,33.3 		"/>
		<path fill="#B28CEA" d="M145.3,33.3V38h-4.7H136v-4.7h-4.7h-4.7H122h-4.7h-4.7v-4.7V24v-4.7H108h-4.7v-4.7V10h-4.7V5.3H94h-4.7
			V0.7h-4.7H80v4.7h-4.7V0.7h-4.7v4.7H66V0.7h4.7V-4H66h-4.7h-4.7v4.7v4.7h4.7V10H66v4.7h4.7v4.7h4.7v-4.7H80V10h4.7v4.7v4.7h4.7
			v-4.7V10H94v4.7v4.7h-4.7V24v4.7h-4.7v4.7h4.7V38v4.7v4.7V52H94v-4.7v-4.7h4.7h4.7v4.7h-4.7V52v4.7h4.7h4.7v4.7h4.7v-4.7h4.7h4.7
			v4.7V66h4.7v4.7v4.7h4.7V80v4.7h4.7V80h4.7v-4.7H136v-4.7V66h-4.7v-4.7h-4.7v-4.7V52H122v-4.7v-4.7h-4.7v4.7V52h-4.7H108v-4.7h4.7
			v-4.7H108V38h4.7h4.7h4.7v4.7h4.7V38h4.7v4.7v4.7h4.7v-4.7h4.7v4.7h4.7v-4.7h4.7V38v-4.7H145.3z M94,24h4.7v4.7H94V24z
			 M103.3,33.3v-4.7V24h4.7v4.7v4.7H103.3z"/>
		<rect x="10" y="38" fill="#B28CEA" width="4.7" height="4.7"/>
		<polygon fill="#B28CEA" points="0.7,42.7 0.7,38 0.7,33.3 -4,33.3 -4,38 -4,42.7 -4,47.3 0.7,47.3 		"/>
		<rect x="-4" y="52" fill="#B28CEA" width="4.7" height="4.7"/>
		<polygon fill="#B28CEA" points="70.7,52 66,52 66,56.7 70.7,56.7 75.3,56.7 75.3,52 		"/>
		<rect x="131.3" y="52" fill="#B28CEA" width="4.7" height="4.7"/>
		<polygon fill="#B28CEA" points="140.7,52 140.7,56.7 145.3,56.7 150,56.7 150,52 145.3,52 		"/>
		<polygon fill="#B28CEA" points="10,56.7 10,52 14.7,52 14.7,47.3 10,47.3 5.3,47.3 5.3,52 5.3,56.7 5.3,61.3 10,61.3 		"/>
		<rect x="24" y="61.3" fill="#B28CEA" width="4.7" height="4.7"/>
		<polygon fill="#B28CEA" points="52,66 52,70.7 56.7,70.7 61.3,70.7 61.3,66 56.7,66 56.7,61.3 52,61.3 		"/>
		<rect x="140.7" y="61.3" fill="#B28CEA" width="4.7" height="4.7"/>
		<rect x="19.3" y="66" fill="#B28CEA" width="4.7" height="4.7"/>
		<rect x="24" y="70.7" fill="#B28CEA" width="4.7" height="4.7"/>
		<rect x="140.7" y="70.7" fill="#B28CEA" width="4.7" height="4.7"/>
		<polygon fill="#B28CEA" points="24,80 24,75.3 19.3,75.3 19.3,70.7 14.7,70.7 14.7,75.3 10,75.3 10,70.7 5.3,70.7 5.3,66 
			5.3,61.3 0.7,61.3 -4,61.3 -4,66 0.7,66 0.7,70.7 -4,70.7 -4,75.3 -4,80 0.7,80 0.7,84.7 -4,84.7 -4,89.3 0.7,89.3 5.3,89.3 
			5.3,94 10,94 10,98.7 14.7,98.7 14.7,94 14.7,89.3 10,89.3 10,84.7 5.3,84.7 5.3,80 10,80 14.7,80 14.7,84.7 19.3,84.7 19.3,80 		
			"/>
		<rect x="70.7" y="75.3" fill="#B28CEA" width="4.7" height="4.7"/>
		<rect x="112.7" y="75.3" fill="#B28CEA" width="4.7" height="4.7"/>
		<rect x="145.3" y="75.3" fill="#B28CEA" width="4.7" height="4.7"/>
		<rect x="117.3" y="80" fill="#B28CEA" width="4.7" height="4.7"/>
		<polygon fill="#B28CEA" points="140.7,84.7 140.7,89.3 140.7,94 136,94 136,98.7 136,103.3 140.7,103.3 140.7,108 140.7,112.7 
			145.3,112.7 145.3,108 150,108 150,103.3 145.3,103.3 145.3,98.7 145.3,94 150,94 150,89.3 150,84.7 145.3,84.7 145.3,80 
			140.7,80 		"/>
		<rect x="19.3" y="84.7" fill="#B28CEA" width="4.7" height="4.7"/>
		<rect x="52" y="84.7" fill="#B28CEA" width="4.7" height="4.7"/>
		<rect x="112.7" y="84.7" fill="#B28CEA" width="4.7" height="4.7"/>
		<rect x="24" y="89.3" fill="#B28CEA" width="4.7" height="4.7"/>
		<polygon fill="#B28CEA" points="131.3,89.3 126.7,89.3 122,89.3 117.3,89.3 117.3,94 122,94 122,98.7 126.7,98.7 126.7,94 
			131.3,94 136,94 136,89.3 		"/>
		<polygon fill="#B28CEA" points="0.7,94 -4,94 -4,98.7 0.7,98.7 5.3,98.7 5.3,94 		"/>
		<rect x="5.3" y="98.7" fill="#B28CEA" width="4.7" height="4.7"/>
		<rect x="14.7" y="98.7" fill="#B28CEA" width="4.7" height="4.7"/>
		<rect x="24" y="98.7" fill="#B28CEA" width="4.7" height="4.7"/>
		<polygon fill="#B28CEA" points="66,103.3 66,98.7 61.3,98.7 56.7,98.7 56.7,103.3 61.3,103.3 		"/>
		<polygon fill="#B28CEA" points="10,108 10,112.7 14.7,112.7 19.3,112.7 24,112.7 28.7,112.7 28.7,108 24,108 19.3,108 14.7,108 
			14.7,103.3 10,103.3 		"/>
		<polygon fill="#B28CEA" points="-4,108 -4,112.7 0.7,112.7 5.3,112.7 5.3,108 0.7,108 		"/>
		<polygon fill="#B28CEA" points="75.3,112.7 70.7,112.7 70.7,108 66,108 66,112.7 61.3,112.7 61.3,117.3 66,117.3 66,122 66,126.7 
			70.7,126.7 70.7,131.3 75.3,131.3 75.3,126.7 75.3,122 70.7,122 70.7,117.3 75.3,117.3 80,117.3 80,112.7 		"/>
		<rect x="136" y="112.7" fill="#B28CEA" width="4.7" height="4.7"/>
		<rect x="145.3" y="112.7" fill="#B28CEA" width="4.7" height="4.7"/>
		<rect x="80" y="117.3" fill="#B28CEA" width="4.7" height="4.7"/>
		<rect x="89.3" y="117.3" fill="#B28CEA" width="4.7" height="4.7"/>
		<rect x="117.3" y="117.3" fill="#B28CEA" width="4.7" height="4.7"/>
		<polygon fill="#B28CEA" points="140.7,122 140.7,126.7 145.3,126.7 145.3,122 145.3,117.3 140.7,117.3 		"/>
		<rect x="56.7" y="122" fill="#B28CEA" width="4.7" height="4.7"/>
		<polygon fill="#B28CEA" points="103.3,122 98.7,122 98.7,126.7 98.7,131.3 103.3,131.3 103.3,126.7 		"/>
		<rect x="33.3" y="126.7" fill="#B28CEA" width="4.7" height="4.7"/>
		<rect x="145.3" y="126.7" fill="#B28CEA" width="4.7" height="4.7"/>
		<rect x="38" y="131.3" fill="#B28CEA" width="4.7" height="4.7"/>
		<polygon fill="#B28CEA" points="61.3,131.3 56.7,131.3 56.7,136 56.7,140.7 61.3,140.7 61.3,136 		"/>
		<path fill="#B28CEA" d="M136,131.3v4.7h-4.7v-4.7H136v-4.7V122v-4.7h-4.7v-4.7h4.7V108h-4.7v-4.7v-4.7h-4.7v4.7v4.7H122h-4.7v-4.7
			v-4.7h-4.7H108V94h4.7v-4.7H108v-4.7V80v-4.7h4.7v-4.7h4.7v4.7h4.7v-4.7V66h-4.7v-4.7h-4.7V66H108v4.7h-4.7h-4.7V66h4.7h4.7v-4.7
			h-4.7h-4.7H94v-4.7h-4.7h-4.7H80h-4.7v4.7H80V66h-4.7h-4.7v-4.7H66v-4.7h-4.7V52v-4.7H66h4.7v-4.7h4.7H80v4.7h4.7v-4.7V38v-4.7H80
			v-4.7h-4.7v4.7h-4.7H66V38h-4.7v4.7h-4.7v4.7H52v-4.7V38h-4.7v4.7v4.7h-4.7H38V52v4.7h4.7V52h4.7v4.7H52h4.7v4.7h4.7V66H66v4.7
			h4.7h4.7v4.7H80v-4.7h4.7V66v-4.7h4.7V66H94v4.7h-4.7h-4.7v4.7h4.7H94h4.7V80H94h-4.7v4.7h-4.7H80V80h-4.7v4.7h-4.7V80H66v-4.7
			h-4.7h-4.7H52h-4.7V80h-4.7v4.7H38V80h4.7v-4.7h4.7v-4.7V66h-4.7H38v-4.7v-4.7h-4.7V52v-4.7h-4.7V52H24v-4.7h4.7v-4.7H24V38h-4.7
			v4.7h-4.7v4.7h4.7V52h-4.7v4.7v4.7V66h4.7v-4.7v-4.7H24h4.7v4.7h4.7V66v4.7H38v4.7h-4.7V80h-4.7H24v4.7h4.7h4.7v4.7H38V94h-4.7
			v4.7H38h4.7v4.7H38h-4.7v4.7v4.7v4.7v4.7H38h4.7h4.7v4.7v4.7v4.7h-4.7v4.7H38v4.7h-4.7v4.7H38h4.7h4.7v-4.7H52h4.7v-4.7H52V136
			v-4.7v-4.7V122v-4.7v-4.7h4.7V108H52v-4.7h-4.7v-4.7V94v-4.7v-4.7H52V80h4.7v4.7h4.7H66v4.7V94h4.7v-4.7h4.7H80V94h4.7v-4.7h4.7
			V94H94v-4.7h4.7v-4.7h4.7v4.7V94h-4.7v4.7H94v4.7h-4.7v-4.7V94h-4.7v4.7H80h-4.7V94h-4.7v4.7v4.7h4.7v4.7H80v-4.7h4.7v4.7h4.7v4.7
			H94v4.7h4.7v-4.7V108v-4.7h4.7h4.7v4.7v4.7h-4.7v4.7h4.7v4.7v4.7v4.7h-4.7v4.7v4.7h-4.7H94v4.7h-4.7h-4.7v4.7h4.7H94h4.7h4.7h4.7
			h4.7h4.7h4.7v-4.7h4.7v-4.7h4.7h4.7h4.7V136h4.7v-4.7h-4.7H136z M47.3,117.3h-4.7v-4.7H38V108h4.7v4.7h4.7V117.3z M112.7,122v-4.7
			v-4.7h4.7h4.7h4.7v4.7v4.7v4.7H122h-4.7h-4.7V122z M112.7,145.3H108v-4.7h4.7V136v-4.7h4.7v4.7v4.7v4.7H112.7z M122,136v-4.7h4.7
			v4.7H122z"/>
		<polygon fill="#B28CEA" points="84.7,136 89.3,136 89.3,140.7 94,140.7 94,136 98.7,136 98.7,131.3 94,131.3 89.3,131.3 
			89.3,126.7 89.3,122 84.7,122 84.7,126.7 84.7,131.3 80,131.3 80,136 75.3,136 75.3,140.7 70.7,140.7 70.7,136 66,136 66,140.7 
			61.3,140.7 61.3,145.3 61.3,150 66,150 66,145.3 70.7,145.3 70.7,150 75.3,150 75.3,145.3 80,145.3 84.7,145.3 84.7,140.7 		"/>
		<rect x="126.7" y="145.3" fill="#B28CEA" width="4.7" height="4.7"/>
		<rect x="145.3" y="145.3" fill="#B28CEA" width="4.7" height="4.7"/>
	</g>
	<g transform="translate(0,0) scale(0.49, 0.49)">
		<g transform="">
			<g>
				<rect x="1.8" y="1.8" fill="none" width="46.7" height="46.7"/>
				<path fill="#B28CEA" d="M48.5-8.2H1.8h-10v10v46.7v10h10h46.7h10v-10V1.8v-10H48.5z M48.5,48.5H1.8V1.8h46.7V48.5z"/>
			</g>
		</g>
	</g>
	<g transform="translate(182,0) scale(0.49, 0.49)">
		<g transform="">
			<g>
				<rect x="-122" y="1.8" fill="none" width="46.7" height="46.7"/>
				<path fill="#B28CEA" d="M-75.3-8.2H-122h-10v10v46.7v10h10h46.7h10v-10V1.8v-10H-75.3z M-75.3,48.5H-122V1.8h46.7V48.5z"/>
			</g>
		</g>
	</g>
	<g transform="translate(0,182) scale(0.49, 0.49)">
		<g transform="">
			<g>
				<rect x="1.8" y="-122" fill="none" width="46.7" height="46.7"/>
				<path fill="#B28CEA" d="M48.5-132H1.8h-10v10v46.7v10h10h46.7h10v-10V-122v-10H48.5z M48.5-75.3H1.8V-122h46.7V-75.3z"/>
			</g>
		</g>
	</g>
	<g transform="translate(14,14) scale(0.21, 0.21)">
		<g transform="">
			<rect x="-41.3" y="-41.3" fill="#B28CEA" width="66.7" height="66.7"/>
		</g>
	</g>
	<g transform="translate(196,14) scale(0.21, 0.21)">
		<g transform="">
			<rect x="-330.2" y="-41.3" fill="#B28CEA" width="66.7" height="66.7"/>
		</g>
	</g>
	<g transform="translate(14,196) scale(0.21, 0.21)">
		<g transform="">
			<rect x="-41.3" y="-330.2" fill="#B28CEA" width="66.7" height="66.7"/>
		</g>
	</g>
</g>
</svg>
