<svg xmlns="http://www.w3.org/2000/svg" viewBox="0 0 36 44"><defs><style>.a{fill:#ccc;}</style></defs><title>timeline-plane</title><path class="a" d="M23.14,38.5V28.75L35.4,20.41a1.41,1.41,0,0,0,.6-1.16v-5.5a1.4,1.4,0,0,0-.55-1.13,1.21,1.21,0,0,0-1.18-.17L23.14,16.79v-6.6l3.48-3.72a1.43,1.43,0,0,0,.38-1V1.38a1.41,1.41,0,0,0-.51-1.1A1.22,1.22,0,0,0,25.36.05L18,2.3,10.64.05A1.22,1.22,0,0,0,9.51.28,1.41,1.41,0,0,0,9,1.38V5.5a1.43,1.43,0,0,0,.38,1l3.86,4.12A1.23,1.23,0,0,0,15,10.7l.08-.08a1.44,1.44,0,0,0,0-1.94L11.57,4.93V3.2l6.08,1.86h.71L24.43,3.2V4.93L21,8.65a1.44,1.44,0,0,0-.38,1v9.13a1.4,1.4,0,0,0,.55,1.13A1.21,1.21,0,0,0,22.3,20l11.13-4.33V18.5L21.17,26.84a1.4,1.4,0,0,0-.6,1.16V38.5A2.67,2.67,0,0,1,18,41.25a2.67,2.67,0,0,1-2.57-2.75V28a1.4,1.4,0,0,0-.6-1.16L2.57,18.5V15.71L13.7,20a1.27,1.27,0,0,0,1.63-.76l0-.06a1.4,1.4,0,0,0-.77-1.76l-12.86-5a1.21,1.21,0,0,0-1.18.17A1.4,1.4,0,0,0,0,13.75v5.5a1.41,1.41,0,0,0,.59,1.16l12.26,8.34V38.5A5.33,5.33,0,0,0,18,44a5.33,5.33,0,0,0,5.14-5.5" transform="translate(0 0)"/></svg>