<svg id="图层_1" data-name="图层 1" xmlns="http://www.w3.org/2000/svg" width="32" height="32" viewBox="0 0 32 32"><defs><style>.cls-1{fill:#fc0;}.cls-2{fill:#040000;}</style></defs><title>zcool-active</title><path class="cls-1" d="M25.41,32H6.59A6.58,6.58,0,0,1,0,25.41V6.59A6.58,6.58,0,0,1,6.59,0H25.41A6.58,6.58,0,0,1,32,6.59V25.41A6.58,6.58,0,0,1,25.41,32Z"/><path class="cls-2" d="M26.74,14.44c-.69.15-1.37.32-2.06.49a1,1,0,0,1,.19-.55,13.14,13.14,0,0,0,2.27-7.46A3.38,3.38,0,0,0,27,6.17a2.71,2.71,0,0,0-.64.38,12,12,0,0,1-3.76,2.58c-.93.39-1.92.65-2.89,1l-.14-.22.18-.58a6,6,0,0,0-.07-3.94A1.39,1.39,0,0,0,19.36,5c-.11.1-.27.17-.34.3-1,2.06-2.81,2.94-4.93,3.45A24.91,24.91,0,0,0,9.9,10a8.51,8.51,0,0,0-5.16,9.78A9.19,9.19,0,0,0,13.44,27a9.14,9.14,0,0,0,8.88-6.48,1.56,1.56,0,0,1,.92-1.12,7.93,7.93,0,0,0,4.08-4.29,3.82,3.82,0,0,0,.12-.69A4.1,4.1,0,0,0,26.74,14.44ZM7.23,20.18a2.11,2.11,0,0,1-1.42-1.82l2.47,1.27A.85.85,0,0,1,7.23,20.18Zm7.06.4a2.83,2.83,0,0,1-2.82-.85l5.83-2C16.63,19.07,15.88,20.29,14.29,20.58Z"/></svg>